<svg id="Capa_1" enable-background="new 0 0 512 512" height="512" viewBox="0 0 512 512" width="512" xmlns="http://www.w3.org/2000/svg"><g><g><path d="m256 432.791v21.588h-219.817c-7.81 0-14.141-6.331-14.141-14.141v-52.367" fill="#dedbee"/><path d="m256 432.791v21.588h219.817c7.81 0 14.141-6.331 14.141-14.141v-52.367" fill="#dedbee"/><path d="m256 81.274-231.735-23.568c-8.971-.912-16.765 6.129-16.765 15.146v320.911c0 7.812 5.912 14.356 13.684 15.146l234.816 23.882z" fill="#faf7f7"/><path d="m256 81.274 231.735-23.568c8.971-.912 16.765 6.129 16.765 15.146v320.911c0 7.812-5.912 14.356-13.684 15.146l-234.816 23.882z" fill="#f4eafa"/><g><path d="m285.552 369.386c-4.916-4.916-6.038-12.47-2.761-18.603l23.832-44.608 38.377-.753 3.763 42.893-44.608 23.832c-6.133 3.276-13.687 2.155-18.603-2.761z" fill="#ffe177"/><path d="m348.763 348.315-42.141-42.141 119.261-119.261c6.033-6.033 15.814-6.033 21.846 0l20.294 20.294c6.033 6.033 6.033 15.814 0 21.846z" fill="#528fd8"/><path d="m285.559 369.391c-4.918-4.918-6.042-12.469-2.768-18.609l23.836-44.61 36.855-.724-18.79 18.79-32.744 35.701c-4.496 4.904-7.091 8.751-6.389 9.452z" fill="#ffd15b"/><path d="m457.881 197.066c-1.667-1.667-4.36-1.659-6.019 0l-127.176 127.176-18.066-18.066 119.263-119.263c6.027-6.027 15.818-6.027 21.845 0z" fill="#0573ce"/><circle cx="406.706" cy="355.088" fill="#ffe177" r="18.092"/><path d="m423.713 348.935c-6.39-2.31-13.82-.9-18.94 4.22-5.13 5.13-6.54 12.56-4.22 18.95-2.43-.87-4.7-2.28-6.64-4.22-7.07-7.07-7.07-18.52 0-25.59 7.06-7.06 18.52-7.06 25.58 0 1.94 1.95 3.35 4.22 4.22 6.64z" fill="#ffd15b"/></g></g><g><path d="m56.82 141.116c8.372.861 16.292-1.976 22.125-7.187.269.364.547.722.834 1.075 4.851 5.964 11.735 9.683 19.382 10.47 8.375.86 16.292-1.976 22.125-7.187.269.364.547.722.834 1.075 4.851 5.964 11.735 9.683 19.382 10.469 8.374.863 16.293-1.975 22.125-7.187.269.364.547.722.834 1.075 4.851 5.964 11.735 9.683 19.382 10.47 7.648.785 15.145-1.451 21.108-6.302.35-.284.691-.575 1.025-.873.267.36.542.714.826 1.064 4.851 5.964 11.735 9.682 19.382 10.469.261.027.521.04.777.04 3.797 0 7.054-2.874 7.451-6.732.424-4.121-2.572-7.805-6.693-8.229-3.662-.377-6.958-2.157-9.281-5.013s-3.395-6.446-3.018-10.108c.027-.262.04-.521.04-.779 0-3.796-2.874-7.052-6.732-7.45-4.121-.425-7.805 2.573-8.229 6.693-.377 3.662-2.158 6.958-5.014 9.281s-6.451 3.394-10.107 3.018c-3.663-.377-6.958-2.157-9.281-5.013s-3.395-6.446-3.018-10.108c.027-.262.04-.521.04-.779 0-3.796-2.874-7.053-6.732-7.45-4.12-.429-7.805 2.572-8.229 6.692-.377 3.662-2.158 6.958-5.014 9.281s-6.45 3.394-10.108 3.018c-3.663-.377-6.958-2.157-9.282-5.013-2.323-2.856-3.395-6.446-3.018-10.108.027-.262.04-.521.04-.779 0-3.796-2.874-7.052-6.732-7.45-4.126-.429-7.805 2.572-8.229 6.692-.778 7.56-7.559 13.076-15.121 12.299-3.662-.377-6.958-2.158-9.282-5.014-2.323-2.856-3.395-6.446-3.018-10.108.027-.262.04-.521.04-.779 0-3.796-2.874-7.052-6.732-7.45-4.126-.425-7.805 2.572-8.229 6.693-.778 7.56-7.565 13.08-15.122 12.299-7.56-.778-13.077-7.562-12.299-15.121.424-4.12-2.572-7.804-6.692-8.229-4.125-.425-7.805 2.573-8.229 6.693-.788 7.648 1.451 15.144 6.302 21.109s11.74 9.686 19.387 10.473z"/><path d="m56.82 192.822c7.648.788 15.144-1.451 21.109-6.302.35-.284.691-.576 1.025-.874.266.36.542.714.826 1.064 4.851 5.964 11.735 9.683 19.383 10.47 8.376.861 16.301-1.979 22.135-7.197 4.648 6.296 11.827 10.692 20.206 11.555 8.374.865 16.293-1.976 22.125-7.187.269.363.547.722.834 1.075 4.852 5.964 11.735 9.683 19.382 10.469 7.648.789 15.145-1.45 21.108-6.302.35-.284.691-.576 1.025-.874.266.36.542.714.826 1.064 4.851 5.964 11.735 9.683 19.382 10.47.261.027.521.04.777.04 3.797 0 7.055-2.873 7.452-6.732.424-4.121-2.572-7.805-6.692-8.229-3.662-.377-6.958-2.158-9.282-5.014-2.323-2.856-3.395-6.446-3.018-10.108.027-.262.04-.521.04-.779 0-3.796-2.874-7.053-6.732-7.45-4.121-.423-7.805 2.572-8.229 6.692-.377 3.662-2.158 6.958-5.014 9.282-2.856 2.323-6.447 3.392-10.108 3.018-3.662-.377-6.958-2.157-9.281-5.013s-3.395-6.446-3.018-10.108c.027-.262.04-.521.04-.779 0-3.796-2.874-7.053-6.732-7.45-4.12-.424-7.805 2.572-8.229 6.692-.377 3.662-2.158 6.958-5.014 9.281-2.855 2.323-6.442 3.393-10.108 3.018-7.56-.778-13.077-7.562-12.299-15.122.027-.262.04-.521.04-.779 0-3.796-2.874-7.053-6.732-7.45-4.126-.423-7.805 2.572-8.229 6.692-.778 7.56-7.559 13.074-15.121 12.3-7.56-.778-13.078-7.562-12.299-15.122.027-.262.04-.521.04-.779 0-3.796-2.874-7.053-6.732-7.45-4.126-.423-7.805 2.572-8.229 6.692-.779 7.56-7.556 13.074-15.122 12.299-3.662-.377-6.958-2.158-9.281-5.014s-3.395-6.446-3.018-10.107c.424-4.121-2.572-7.805-6.692-8.229-4.125-.424-7.805 2.572-8.229 6.692-.788 7.647 1.451 15.144 6.302 21.108s11.736 9.69 19.383 10.477z"/><path d="m56.82 244.528c7.647.789 15.145-1.451 21.109-6.302.35-.284.691-.576 1.025-.874.266.36.542.714.826 1.064 4.852 5.964 11.735 9.683 19.382 10.469 7.647.789 15.144-1.451 21.108-6.302.35-.284.691-.576 1.025-.874.267.36.542.714.826 1.064 4.851 5.964 11.735 9.683 19.383 10.47 8.371.866 16.292-1.975 22.125-7.187.269.363.547.722.834 1.075 4.851 5.964 11.735 9.683 19.382 10.47 7.648.789 15.145-1.45 21.108-6.302.35-.284.691-.576 1.025-.874.267.36.542.714.826 1.064 4.852 5.964 11.735 9.683 19.383 10.469.261.027.52.04.777.04 3.797 0 7.054-2.874 7.451-6.733.424-4.12-2.572-7.804-6.693-8.228-3.662-.377-6.958-2.157-9.281-5.013s-3.395-6.446-3.018-10.108c.027-.262.04-.521.04-.779 0-3.796-2.874-7.053-6.732-7.45-4.121-.422-7.805 2.572-8.229 6.692-.377 3.662-2.158 6.958-5.014 9.282s-6.446 3.393-10.107 3.018c-3.662-.377-6.958-2.158-9.282-5.014-2.323-2.856-3.395-6.446-3.018-10.107.027-.262.04-.521.04-.779 0-3.796-2.874-7.053-6.732-7.45-4.119-.425-7.805 2.572-8.229 6.692-.778 7.559-7.555 13.073-15.122 12.299-7.56-.778-13.077-7.562-12.299-15.122.027-.262.04-.521.04-.779 0-3.796-2.874-7.053-6.732-7.45-4.126-.426-7.805 2.572-8.229 6.692-.377 3.662-2.158 6.958-5.014 9.282-2.856 2.322-6.449 3.393-10.108 3.018-3.662-.377-6.958-2.157-9.281-5.013s-3.395-6.446-3.018-10.108c.027-.262.04-.521.04-.779 0-3.796-2.874-7.053-6.732-7.45-4.126-.422-7.805 2.572-8.229 6.692-.779 7.56-7.556 13.075-15.122 12.299-7.56-.778-13.078-7.562-12.299-15.122.424-4.121-2.572-7.805-6.692-8.229-4.125-.426-7.805 2.572-8.229 6.692-.788 7.648 1.451 15.145 6.302 21.109s11.737 9.689 19.384 10.476z"/><path d="m56.821 296.235c8.375.859 16.292-1.975 22.125-7.188.269.364.547.723.834 1.076 4.851 5.964 11.735 9.683 19.382 10.47 7.647.789 15.144-1.451 21.108-6.302.35-.284.691-.576 1.025-.874.267.36.542.714.826 1.064 4.852 5.964 11.735 9.683 19.382 10.469 8.374.865 16.293-1.976 22.125-7.187.269.363.547.722.834 1.075 4.851 5.964 11.735 9.683 19.383 10.47 8.373.862 16.292-1.976 22.125-7.187.269.364.547.722.834 1.076 4.851 5.964 11.735 9.682 19.382 10.469.261.027.521.04.777.04 3.797 0 7.055-2.873 7.452-6.732.424-4.121-2.572-7.805-6.692-8.229-7.56-.778-13.077-7.562-12.299-15.121.027-.262.04-.521.04-.779 0-3.796-2.874-7.053-6.732-7.45-4.121-.424-7.805 2.572-8.229 6.692-.778 7.559-7.557 13.072-15.121 12.299-3.662-.377-6.958-2.158-9.281-5.014s-3.395-6.446-3.018-10.108c.027-.262.04-.521.04-.779 0-3.796-2.874-7.053-6.732-7.45-4.12-.424-7.805 2.572-8.229 6.692-.377 3.662-2.158 6.958-5.014 9.281s-6.45 3.392-10.108 3.018c-3.662-.377-6.958-2.157-9.281-5.013s-3.395-6.446-3.018-10.108c.027-.262.04-.521.04-.779 0-3.796-2.874-7.053-6.732-7.45-4.126-.424-7.805 2.572-8.229 6.692-.377 3.662-2.158 6.958-5.014 9.282s-6.445 3.393-10.107 3.018c-7.56-.778-13.078-7.562-12.299-15.122.027-.262.04-.521.04-.779 0-3.796-2.874-7.053-6.732-7.45-4.126-.424-7.805 2.572-8.229 6.692-.778 7.561-7.565 13.076-15.122 12.3-7.56-.778-13.078-7.562-12.299-15.122.424-4.121-2.572-7.805-6.692-8.229-4.125-.424-7.805 2.572-8.229 6.692-.788 7.648 1.451 15.145 6.302 21.109s11.734 9.689 19.382 10.476z"/><path d="m121.287 345.112c.269.363.547.722.834 1.075 4.851 5.964 11.735 9.683 19.382 10.47 8.374.865 16.293-1.975 22.125-7.187.269.363.547.722.834 1.075 4.852 5.964 11.735 9.683 19.382 10.469 7.648.788 15.145-1.45 21.108-6.302.35-.284.691-.576 1.025-.874.266.36.542.714.826 1.064 4.851 5.964 11.735 9.683 19.382 10.47.261.027.521.04.777.04 3.797 0 7.055-2.873 7.452-6.732.424-4.121-2.572-7.805-6.692-8.229-3.662-.377-6.958-2.158-9.282-5.014-2.323-2.856-3.395-6.446-3.018-10.108.027-.262.04-.521.04-.779 0-3.796-2.874-7.053-6.732-7.45-4.121-.422-7.805 2.572-8.229 6.692-.377 3.662-2.158 6.958-5.014 9.282-2.856 2.323-6.447 3.392-10.108 3.018-3.662-.377-6.958-2.157-9.281-5.013s-3.395-6.446-3.018-10.108c.027-.262.04-.521.04-.779 0-3.796-2.874-7.053-6.732-7.45-4.12-.423-7.805 2.572-8.229 6.692-.377 3.662-2.158 6.958-5.014 9.281-2.855 2.323-6.442 3.393-10.108 3.018-3.662-.377-6.958-2.158-9.282-5.014-2.323-2.856-3.395-6.446-3.018-10.107.027-.262.04-.521.04-.779 0-3.796-2.874-7.053-6.732-7.45-4.126-.423-7.805 2.572-8.229 6.692-.778 7.56-7.559 13.073-15.121 12.299-7.56-.778-13.078-7.562-12.299-15.122.027-.262.04-.521.04-.779 0-3.796-2.874-7.053-6.732-7.45-4.126-.423-7.805 2.572-8.229 6.692-.779 7.56-7.566 13.071-15.122 12.299-3.662-.377-6.958-2.157-9.281-5.013s-3.395-6.446-3.018-10.108c.424-4.121-2.572-7.805-6.692-8.229-4.125-.423-7.805 2.572-8.229 6.692-.788 7.648 1.451 15.145 6.302 21.109 4.852 5.964 11.735 9.683 19.382 10.469 7.648.788 15.144-1.451 21.109-6.302.35-.284.691-.576 1.025-.874.266.36.542.714.826 1.064 4.851 5.964 11.735 9.683 19.383 10.47 8.374.869 16.295-1.967 22.127-7.18z"/><path d="m504.511 55.988c-4.758-4.3-11.151-6.395-17.529-5.747l-156.98 15.97c-4.121.419-7.122 4.1-6.703 8.22.42 4.121 4.103 7.121 8.221 6.702l156.979-15.97c2.205-.223 4.316.471 5.957 1.953 1.642 1.484 2.546 3.521 2.546 5.735v320.91c0 3.981-2.982 7.287-6.938 7.689l-226.564 23.041v-336.442l33.199-3.375c4.12-.419 7.122-4.099 6.703-8.22-.42-4.12-4.084-7.123-8.221-6.703l-39.182 3.983-230.982-23.493c-6.38-.647-12.77 1.448-17.528 5.747-4.76 4.301-7.489 10.448-7.489 16.865v320.91c0 9.632 5.949 17.908 14.54 21.202v25.27c0 11.933 9.708 21.64 21.64 21.64h219.82 219.82c11.933 0 21.64-9.708 21.64-21.64v-25.27c8.591-3.294 14.54-11.57 14.54-21.203v-320.909c0-6.417-2.729-12.564-7.489-16.865zm-474.971 384.247v-22.934l26.402 2.683c4.114.42 7.801-2.582 8.22-6.703s-2.582-7.801-6.703-8.22l-35.52-3.61c-3.956-.402-6.939-3.708-6.939-7.689v-320.909c0-2.215.904-4.252 2.546-5.735 1.641-1.482 3.752-2.176 5.955-1.953l224.999 22.883v336.442l-156.331-15.9c-4.119-.419-7.801 2.582-8.22 6.703s2.582 7.801 6.703 8.22l157.848 16.055v7.306h-212.32c-3.661.001-6.64-2.978-6.64-6.639zm446.28 6.64h-212.32v-7.306l218.96-22.267v22.933c0 3.661-2.979 6.64-6.64 6.64z"/><path d="m480.05 218.133c0-6.131-2.391-11.895-6.726-16.222l-20.29-20.301c-8.942-8.941-23.5-8.944-32.458 0l-119.26 119.26c-.57.57-1.025 1.209-1.373 1.89l-23.769 44.49c-4.867 9.109-3.229 20.137 4.073 27.44 4.502 4.502 10.418 6.851 16.428 6.851 3.741 0 7.519-.91 11.013-2.777l44.608-23.832-.002-.004c.635-.34 1.233-.775 1.769-1.311l21.11-21.11c2.929-2.929 2.929-7.678 0-10.606-2.929-2.929-7.677-2.929-10.607 0l-15.807 15.807-31.533-31.534 97.002-97.002 31.533 31.533-56.536 56.536c-2.929 2.929-2.929 7.678 0 10.606 2.93 2.929 7.678 2.929 10.607 0l56.535-56.536 2.838 2.838c1.636 1.636 2.536 3.81 2.536 6.124 0 2.313-.9 4.488-2.537 6.124l-70.597 70.596c-.001.001-.001.002-.002.003-9.974 9.978-9.974 26.212.002 36.189 4.989 4.989 11.543 7.484 18.097 7.484s13.107-2.495 18.097-7.484c9.977-9.978 9.977-26.213-.001-36.192-2.67-2.67-5.791-4.619-9.118-5.86l54.129-54.129c4.47-4.469 6.931-10.411 6.931-16.731s-2.461-12.262-6.93-16.73l-2.838-2.838 6.343-6.343c4.342-4.335 6.733-10.098 6.733-16.229zm-143.743 128.333-35.687 19.066c-3.243 1.732-7.167 1.149-9.765-1.45-2.6-2.599-3.183-6.523-1.45-9.765l19.066-35.687zm70.399-1.965c2.712 0 5.425 1.033 7.489 3.097 4.13 4.13 4.13 10.85 0 14.979-4.128 4.129-10.849 4.13-14.979 0-4.13-4.129-4.13-10.849-.001-14.978 0 0 .001 0 .001-.001l.004-.004c2.066-2.062 4.775-3.093 7.486-3.093zm18.13-145.938 6.343-6.343c3.104-3.1 8.15-3.102 11.247-.006l20.295 20.306c1.502 1.5 2.329 3.493 2.329 5.613s-.827 4.112-2.334 5.616l-6.347 6.347z"/><path d="m297.806 127.727c0 .257.014.517.04.779.378 3.662-.694 7.252-3.017 10.108s-5.619 4.636-9.281 5.013c-4.121.424-7.117 4.108-6.693 8.229.397 3.859 3.654 6.732 7.452 6.732.256 0 .516-.013.776-.04 7.648-.787 14.531-4.505 19.383-10.469.287-.353.564-.711.834-1.075 5.831 5.211 13.749 8.048 22.124 7.186s15.55-5.253 20.198-11.543c.337.301.683.595 1.035.883 5.965 4.851 13.466 7.09 21.108 6.302 8.375-.862 15.55-5.253 20.198-11.543.337.301.683.595 1.035.883 5.965 4.851 13.464 7.091 21.108 6.302 8.375-.862 15.55-5.253 20.198-11.543.337.301.683.595 1.035.883 5.965 4.851 13.468 7.09 21.108 6.302 7.648-.787 14.531-4.506 19.383-10.47 4.851-5.964 7.089-13.461 6.302-21.109-.425-4.12-4.097-7.12-8.229-6.692-4.12.424-7.116 4.108-6.692 8.229.378 3.662-.694 7.251-3.017 10.107s-5.619 4.636-9.281 5.013c-3.664.376-7.251-.694-10.108-3.018-2.855-2.323-4.636-5.619-5.013-9.281-.425-4.119-4.097-7.12-8.229-6.693-3.859.397-6.732 3.654-6.733 7.45 0 .257.014.517.04.779.778 7.56-4.739 14.343-12.299 15.121-3.664.376-7.251-.694-10.108-3.018-2.855-2.323-4.636-5.619-5.013-9.281-.424-4.12-4.095-7.119-8.229-6.693-3.859.397-6.732 3.654-6.733 7.45 0 .257.014.517.04.779.778 7.56-4.739 14.344-12.299 15.121-3.668.379-7.252-.695-10.108-3.018-2.855-2.323-4.636-5.619-5.013-9.281-.424-4.12-4.101-7.118-8.229-6.693-3.859.397-6.732 3.654-6.733 7.45 0 .257.014.517.04.779.778 7.56-4.739 14.344-12.299 15.122-7.568.781-14.344-4.74-15.121-12.299-.424-4.12-4.101-7.12-8.229-6.692-3.857.396-6.73 3.653-6.731 7.449z"/><path d="m285.548 195.334c-4.121.424-7.117 4.108-6.693 8.229.397 3.859 3.654 6.732 7.452 6.732.256 0 .516-.013.776-.04 7.648-.787 14.531-4.505 19.383-10.47.287-.353.565-.711.834-1.075 5.831 5.21 13.749 8.048 22.124 7.186 7.647-.787 14.531-4.505 19.383-10.469.284-.35.56-.704.825-1.064.334.298.676.589 1.025.874 5.965 4.851 13.466 7.091 21.108 6.302 4.121-.424 7.117-4.108 6.693-8.229-.424-4.12-4.095-7.12-8.229-6.692-3.669.376-7.252-.695-10.108-3.018-2.855-2.323-4.636-5.619-5.013-9.281-.424-4.12-4.101-7.117-8.229-6.693-3.859.397-6.732 3.653-6.733 7.45 0 .257.014.517.04.778.778 7.56-4.739 14.344-12.299 15.122-7.568.771-14.344-4.74-15.121-12.299-.424-4.12-4.101-7.115-8.229-6.692-3.858.397-6.731 3.654-6.732 7.45 0 .257.014.517.04.778.378 3.662-.694 7.252-3.017 10.108-2.322 2.855-5.618 4.636-9.28 5.013z"/></g></g></svg>